<?xml version="1.0" standalone="no"?>
<!DOCTYPE svg PUBLIC "-//W3C//DTD SVG 20010904//EN"
 "http://www.w3.org/TR/2001/REC-SVG-20010904/DTD/svg10.dtd">
<svg version="1.0" xmlns="http://www.w3.org/2000/svg"
 width="4000.000000pt" height="4000.000000pt" viewBox="0 0 4000.000000 4000.000000"
 preserveAspectRatio="xMidYMid meet">

<g transform="translate(0.000000,4000.000000) scale(0.100000,-0.100000)"
fill="#000000" stroke="none">
<path d="M0 20000 l0 -20000 20000 0 20000 0 0 20000 0 20000 -20000 0 -20000
0 0 -20000z m31605 906 c39 -2 87 -5 108 -5 30 -1 37 -5 37 -21 0 -17 7 -20
48 -22 26 0 60 0 76 1 16 2 32 -3 37 -10 5 -8 23 -12 45 -11 21 2 41 -2 45 -9
4 -6 30 -14 58 -17 29 -2 49 -7 47 -10 -3 -3 11 -14 32 -26 32 -18 57 -21 195
-24 86 -2 157 -7 157 -10 0 -4 2 -97 5 -207 4 -227 5 -233 15 -185 6 30 8 26
9 -27 1 -47 5 -63 15 -63 20 0 37 -107 42 -270 3 -74 7 -141 10 -148 7 -24 -8
-92 -21 -92 -7 0 -16 -19 -19 -45 -4 -25 -11 -45 -17 -45 -14 0 -11 -27 4 -34
10 -5 10 -7 0 -12 -8 -3 -13 -24 -13 -47 0 -27 -3 -37 -9 -29 -11 17 -21 -83
-21 -204 l0 -94 -180 0 c-99 0 -180 -4 -180 -9 0 -5 -16 -12 -36 -16 -44 -8
-74 -25 -74 -42 0 -7 -3 -12 -7 -12 -36 6 -83 -3 -83 -15 0 -11 -21 -16 -81
-22 -44 -4 -86 -12 -92 -19 -37 -36 -291 -37 -11932 -32 -6220 3 -11366 8
-11435 12 -69 4 -128 11 -131 16 -3 5 -50 16 -105 23 -54 8 -93 14 -86 15 25
2 -15 31 -42 31 -14 0 -26 4 -26 9 0 5 -11 12 -24 15 -14 3 -28 15 -31 26 -6
19 -15 20 -219 20 l-213 0 -9 233 c-6 153 -11 213 -15 177 l-6 -55 -1 53 c-1
28 -6 52 -12 52 -5 0 -10 9 -10 21 0 19 -19 47 -36 52 -4 1 -6 78 -5 171 2
132 0 171 -11 177 -10 7 -11 12 0 29 6 11 12 31 12 45 0 14 5 25 10 25 6 0 10
9 10 20 0 11 5 20 10 20 6 0 10 14 10 30 0 17 4 30 9 30 6 0 12 15 14 33 2 19
5 7 7 -33 3 -62 4 -60 10 35 4 55 8 166 9 247 l1 146 173 4 c140 2 178 6 206
21 19 9 45 17 58 17 13 0 26 6 29 14 3 8 18 16 33 19 16 3 36 13 44 22 11 11
36 15 91 15 67 0 76 2 76 19 0 23 49 31 172 27 48 -1 93 1 100 6 14 8 22992 3
23113 -6z"/>
</g>
</svg>
